Coordinates
version=1
nRows=18
nColumns=22
inDegrees=yes

Units are S.I. units (second, meters, Newtons, ...)
If the header above contains a line with 'inDegrees', this indicates whether rotational values are in degrees (yes) or radians (no).

endheader
time	pelvis_tilt	pelvis_list	pelvis_rotation	pelvis_tx	pelvis_ty	pelvis_tz	hip_flexion_r	hip_adduction_r	hip_rotation_r	knee_angle_r	ankle_angle_r	subtalar_angle_r	hip_flexion_l	hip_adduction_l	hip_rotation_l	knee_angle_l	ankle_angle_l	subtalar_angle_l	lumbar_extension	lumbar_bending	lumbar_rotation
      1.77000000	      7.22543235	     -7.72128750	     -3.50197895	      0.24433324	      0.90591044	      0.14032737	    -22.89271124	     11.61081458	      2.37734190	    -10.75087845	     17.48727697	     -2.51120036	     24.41294968	     -8.59010540	    -13.74654986	    -14.69864405	      9.44274709	     -0.61705484	    -13.68801360	      7.48065630	      4.90498926
      1.78000000	      7.21884835	     -7.43664901	     -3.85264840	      0.25737368	      0.90402253	      0.14006173	    -23.39417040	     11.06657843	      2.51361299	    -11.47340612	     17.54707767	     -2.15480970	     24.38172457	     -8.23946434	    -13.92085775	    -15.11433335	      9.61200816	     -0.61221789	    -13.55963113	      7.16795011	      5.19330622
      1.79000000	      7.22845357	     -7.06335697	     -4.13298228	      0.27079090	      0.90242802	      0.13972500	    -23.90153028	     10.45329254	      2.63277363	    -12.20364826	     17.36912091	     -1.43492445	     24.31626057	     -7.79585512	    -13.87947710	    -15.85504116	      9.58735381	     -1.17258304	    -13.38412392	      6.75378522	      5.36285332
      1.80000000	      7.19541930	     -6.63975783	     -4.36825327	      0.28450528	      0.90103548	      0.13935296	    -24.30744013	      9.81037501	      2.71313233	    -13.02449136	     17.01964496	     -0.77544726	     24.32215225	     -7.31160645	    -13.70344707	    -16.92371335	      9.27130400	     -2.08792546	    -13.10936314	      6.28412994	      5.47417597
      1.81000000	      7.14707655	     -6.15179940	     -4.52556212	      0.29852559	      0.89990601	      0.13884559	    -24.66077968	      9.12998967	      2.76178444	    -13.88883895	     16.41199309	      0.03647945	     24.36321520	     -6.73264614	    -13.36132523	    -18.21023383	      8.69486958	     -3.27830203	    -12.76702362	      5.75633191	      5.44107737
      1.82000000	      7.07549611	     -5.59710684	     -4.61059973	      0.31281639	      0.89903722	      0.13817835	    -24.93839807	      8.40639338	      2.76685363	    -14.81468797	     15.55955164	      0.99400009	     24.44996547	     -6.04569903	    -12.88663695	    -19.63864837	      7.90315508	     -4.63185489	    -12.35317318	      5.17105695	      5.29500045
      1.83000000	      6.99540117	     -4.99256672	     -4.65352587	      0.32732065	      0.89846847	      0.13741435	    -25.14393023	      7.64284184	      2.74866306	    -15.81685235	     14.40721895	      2.15015494	     24.55722593	     -5.27585442	    -12.32844392	    -21.14420717	      7.02954146	     -6.10436698	    -11.89867206	      4.53301352	      5.11823638
      1.84000000	      6.91073464	     -4.32208998	     -4.61117932	      0.34202175	      0.89818747	      0.13647091	    -25.27136542	      6.84086914	      2.67458400	    -16.90096455	     12.97255871	      3.40447398	     24.67062374	     -4.38075078	    -11.66760148	    -22.66127694	      6.18900303	     -7.56325359	    -11.40547374	      3.83604176	      4.80973696
      1.85000000	      6.85299209	     -3.61694092	     -4.52673309	      0.35684140	      0.89825076	      0.13544372	    -25.32529128	      6.01376227	      2.58409150	    -18.11295219	     11.20193984	      4.78394850	     24.72627051	     -3.41277779	    -10.96424839	    -24.14557263	      5.55257690	     -8.98616516	    -10.92930921	      3.09965348	      4.47111237
      1.86000000	      6.84550973	     -2.89668715	     -4.38855350	      0.37174946	      0.89866133	      0.13435835	    -25.32658992	      5.18345839	      2.44416721	    -19.44821027	      9.10305506	      6.22294066	     24.69487184	     -2.40179819	    -10.26440856	    -25.60134620	      5.21696054	    -10.30907682	    -10.50272205	      2.33878445	      4.09269077
      1.87000000	      6.90205091	     -2.18989577	     -4.23223624	      0.38666524	      0.89943289	      0.13329305	    -25.26075856	      4.37010060	      2.32052415	    -20.94721699	      6.67948280	      7.72006338	     24.52813787	     -1.39756788	     -9.62630546	    -26.98178921	      5.22356914	    -11.53580425	    -10.15637978	      1.57896738	      3.72040742
      1.88000000	      7.01682328	     -1.50881712	     -4.07562293	      0.40153685	      0.90052155	      0.13229625	    -25.09976565	      3.58035956	      2.21505605	    -22.63626495	      3.98067322	      9.20483909	     24.21614335	     -0.43248751	     -9.11062561	    -28.26311259	      5.58248996	    -12.63570836	     -9.88906215	      0.83087572	      3.35895269
      1.89000000	      7.18996168	     -0.88541401	     -3.92492745	      0.41622630	      0.90188382	      0.13134782	    -24.80251623	      2.83693003	      2.10177626	    -24.57185279	      1.09807888	     10.58426751	     23.74746064	      0.46744512	     -8.67256811	    -29.40715997	      6.21890294	    -13.60056442	     -9.72523618	      0.13787906	      3.03518296
      1.90000000	      7.40441902	     -0.32546294	     -3.77978232	      0.43066548	      0.90344230	      0.13042735	    -24.33775788	      2.14261415	      1.96839714	    -26.76454287	     -1.82793167	     11.75755826	     23.13480588	      1.29263502	     -8.32599380	    -30.39029804	      7.07371196	    -14.42540992	     -9.65204320	     -0.48624518	      2.72389514
      1.91000000	      7.62964095	      0.17501324	     -3.66196400	      0.44477250	      0.90510493	      0.12954608	    -23.65159588	      1.48063259	      1.82349398	    -29.23867647	     -4.62167426	     12.68583071	     22.40628780	      2.03648043	     -8.08635213	    -31.18580780	      8.05149411	    -15.11962724	     -9.64173674	     -1.04115197	      2.43678792
      1.92000000	      7.84486112	      0.62467637	     -3.58943827	      0.45849672	      0.90679550	      0.12870955	    -22.71281981	      0.82787277	      1.66640209	    -31.99347795	     -7.10017077	     13.35966775	     21.58701941	      2.70183486	     -7.96036457	    -31.78231561	      9.09138565	    -15.69338617	     -9.67449568	     -1.53307217	      2.17926776
      1.93000000	      8.04053189	      1.03239953	     -3.56317412	      0.47180448	      0.90845725	      0.12789957	    -21.52082482	      0.16653761	      1.48470824	    -34.98716719	     -9.12134083	     13.80274647	     20.70092735	      3.29695842	     -7.95059576	    -32.19245608	     10.14008939	    -16.14784988	     -9.73954197	     -1.96577127	      1.93164308
      1.94000000	      8.21111455	      1.41203611	     -3.59773261	      0.48468689	      0.91005411	      0.12714084	    -20.08762044	     -0.52391265	      1.30444347	    -38.16060242	    -10.59350488	     14.08478271	     19.76665976	      3.82946759	     -8.06939326	    -32.42961359	     11.15143696	    -16.46622311	     -9.82933312	     -2.35589198	      1.68494110
